<svg version="1.2" xmlns="http://www.w3.org/2000/svg" viewBox="0 0 20 20" width="20" height="20"><style>.a{fill:none;stroke:#000;stroke-linecap:round;stroke-linejoin:round;stroke-width:2}</style><path class="a" d="m3 7.8v6.4c0 1.7 0 2.5 0.3 3.2 0.3 0.5 0.8 1 1.3 1.3q0.3 0.1 0.5 0.2"/><path class="a" d="m19 10l-5.4-6c-1.3-1.4-1.9-2.1-2.6-2.3-0.7-0.3-1.3-0.3-2 0-0.7 0.2-1.3 0.9-2.6 2.3l-5.4 6"/><path class="a" d="m17 3v11.2c0 1.7 0 2.5-0.3 3.2-0.3 0.5-0.8 1-1.3 1.3q-0.3 0.1-0.5 0.2"/><path class="a" d="m5.1 18.9c0.6-2.3 2.5-3.9 4.9-3.9 2.4 0 4.3 1.6 4.9 3.9"/><path class="a" d="m5.1 18.9c0.6 0.1 1.4 0.1 2.7 0.1h4.4c1.3 0 2.1 0 2.7-0.1"/><path fill-rule="evenodd" class="a" d="m12 10c0 1.1-0.9 2-2 2-1.1 0-2-0.9-2-2 0-1.1 0.9-2 2-2 1.1 0 2 0.9 2 2z"/></svg>